/* XPM */
static char *result[] = {
/* columns rows colors chars-per-pixel */
"19 20 59 1 ",
"  c #202E35",
". c #202F36",
"X c #212F36",
"o c #212F37",
"O c #222F38",
"+ c #203037",
"@ c #213037",
"# c #213038",
"$ c #213139",
"% c #223139",
"& c #22313A",
"* c #22323A",
"= c #22333C",
"- c #23333C",
"; c #23343E",
": c #24353F",
"> c #2D3A3F",
", c #243640",
"< c #243740",
"1 c #243641",
"2 c #243741",
"3 c #253842",
"4 c #253843",
"5 c #41799B",
"6 c #407A9D",
"7 c #427B9D",
"8 c #407A9E",
"9 c #427B9E",
"0 c #427C9E",
"q c #437C9F",
"w c #437D9F",
"e c #417CA1",
"r c #437DA0",
"t c #447EA2",
"y c #9A2890",
"u c #4981A2",
"i c #4B8DB6",
"p c #4C8FB8",
"a c #4C91BA",
"s c #4C91BB",
"d c #4D91BB",
"f c #4D92BB",
"g c #4990BC",
"h c #4D92BC",
"j c #4D94BE",
"k c #4E94BE",
"l c #4E94BF",
"z c #5597BE",
"x c #4E95C0",
"c c #4F96C1",
"v c #D3B58F",
"b c #DCB88E",
"n c #D3B691",
"m c #FED6A7",
"M c #FFD7A8",
"N c #FFDCAC",
"B c #FDFCFC",
"V c white",
"C c None",
/* pixels */
"CCCCCCCCCCCCCCCCCCC",
"CCCCCCCCCCCCCCCCCCC",
"CCCC@#########*CCCC",
"CCC#oqrt#phhhhc3CCC",
"CC#yO6V%Bushhhhc4CC",
"CC#yO6V%Buj$ihc,*CC",
"CC##o8V%Bushhhhc4CC",
"CCC+yO0rrwdhhhhc4CC",
"CCC+yO0rrwdhhhhc4CC",
"CCC##o0rrrql;###*CC",
"CCCCC#X9rdhhx<CCCCC",
"CCCCCCX8vmMMN>CCCCC",
"CCCC@#.8vmMMN>CCCCC",
"CCCC.ahevmMMN>CCCCC",
"CCCC@o0rwgnbz1CCCCC",
"CCCCC#X7fhhhx<CCCCC",
"CCCCCCX7k= 5l2CCCCC",
"CCCCCCXr-C q:CCCCCC",
"CCCCCC#%CC#&CCCCCCC",
"CCCCCCCCCCCCCCCCCCC"
};
