/* XPM */
static char *result[] = {
/* columns rows colors chars-per-pixel */
"32 32 225 2 ",
"   c #020100",
".  c #0F0F07",
"X  c #130D02",
"o  c #1E1204",
"O  c #1D1504",
"+  c #19180A",
"@  c #1B1D0D",
"#  c #211C08",
"$  c #291D0F",
"%  c #1F210F",
"&  c #2E2106",
"*  c #2C220D",
"=  c #2E2A0E",
"-  c #362706",
";  c #35310E",
":  c #2B2911",
">  c #2F2E13",
",  c #332812",
"<  c #3B2916",
"1  c #34291A",
"2  c #2D3E17",
"3  c #333316",
"4  c #313417",
"5  c #3A3010",
"6  c #3C3313",
"7  c #393717",
"8  c #32331A",
"9  c #393B19",
"0  c #3D3F1B",
"q  c #3A3C1C",
"w  c #3B3E1F",
"e  c #43290A",
"r  c #4E2B08",
"t  c #473208",
"y  c #5F360D",
"u  c #563C0A",
"i  c #4C3E1F",
"p  c #2E4017",
"a  c #2F4219",
"s  c #354C1C",
"d  c #375B24",
"f  c #5C410B",
"g  c #4F4513",
"h  c #4F4719",
"j  c #544715",
"k  c #594910",
"l  c #56461D",
"z  c #48531B",
"x  c #5B531D",
"c  c #62450C",
"v  c #6D4E0D",
"b  c #71500D",
"n  c #7D580E",
"m  c #615016",
"M  c #63561B",
"N  c #62591F",
"B  c #6A5D1A",
"V  c #735512",
"C  c #705717",
"Z  c #795D17",
"A  c #404120",
"S  c #474A20",
"D  c #4F4F21",
"F  c #4D5123",
"G  c #545724",
"H  c #535D22",
"J  c #5B5F29",
"K  c #595F2A",
"L  c #725F20",
"P  c #705E22",
"I  c #426D2C",
"U  c #5C612B",
"Y  c #47762F",
"T  c #4A742D",
"R  c #696326",
"E  c #616129",
"W  c #63652A",
"Q  c #63692E",
"!  c #7C6621",
"~  c #7D6622",
"^  c #736827",
"/  c #726928",
"(  c #716C2A",
")  c #72702F",
"_  c #6C7332",
"`  c #6C7233",
"'  c #6D7433",
"]  c #717431",
"[  c #737533",
"{  c #757832",
"}  c #7B7A32",
"|  c #797C35",
" . c #825C10",
".. c #896211",
"X. c #8B6212",
"o. c #88651A",
"O. c #976D14",
"+. c #966D16",
"@. c #9A6E14",
"#. c #9C7015",
"$. c #9B731E",
"%. c #A57515",
"&. c #AC7F1C",
"*. c #B17D15",
"=. c #907627",
"-. c #518636",
";. c #798038",
":. c #7B8339",
">. c #7F8438",
",. c #61A241",
"<. c #6FB84A",
"1. c #6FB94A",
"2. c #70BB4A",
"3. c #71BB4B",
"4. c #71BC4B",
"5. c #BD8516",
"6. c #B5871E",
"7. c #838A3C",
"8. c #858D3E",
"9. c #888E3E",
"0. c #AD8A2A",
"q. c #A88B2F",
"w. c #AB8D2F",
"e. c #B78C23",
"r. c #BD8D21",
"t. c #B5922D",
"y. c #AE8F34",
"u. c #B49331",
"i. c #C08817",
"p. c #CB911A",
"a. c #CC9119",
"s. c #D1971E",
"d. c #CF9922",
"f. c #CC9B26",
"g. c #C09D34",
"h. c #D8A024",
"j. c #D9A124",
"k. c #DAA325",
"l. c #D5A229",
"z. c #D6A72E",
"x. c #DDA628",
"c. c #DCA82B",
"v. c #C4A035",
"b. c #CCA737",
"n. c #D7AA32",
"m. c #D7B03A",
"M. c #DDB53C",
"N. c #E3AE2D",
"B. c #E4AF2D",
"V. c #E4AF2E",
"C. c #E4B02F",
"Z. c #E6B12F",
"A. c #E7B230",
"S. c #E7B330",
"D. c #E8B331",
"F. c #E9B532",
"G. c #EAB632",
"H. c #EEBB36",
"J. c #EABC3A",
"K. c #F0BE38",
"L. c #F2C03A",
"P. c #F3C23B",
"I. c #F4C33C",
"U. c #F5C43C",
"Y. c #F6C63D",
"T. c #F8C93F",
"R. c #F9C93F",
"E. c #8D9642",
"W. c #8E9642",
"Q. c #949A43",
"!. c #919944",
"~. c #939C45",
"^. c #959C45",
"/. c #949D45",
"(. c #98A045",
"). c #98A146",
"_. c #98A147",
"`. c #99A247",
"'. c #9BA448",
"]. c #9DA649",
"[. c #9EA748",
"{. c #9FA94A",
"}. c #A2AB4B",
"|. c #A5AF4D",
" X c #A7B14E",
".X c #A9B34E",
"XX c #AAB44F",
"oX c #ACB650",
"OX c #B0BA52",
"+X c #B2BD53",
"@X c #B4BE54",
"#X c #B4BF54",
"$X c #B5C054",
"%X c #B7C255",
"&X c #B8C355",
"*X c #B8C356",
"=X c #B9C456",
"-X c #BBC657",
";X c #BBC757",
":X c #BDC858",
">X c #BFCA59",
",X c #BFCB59",
"<X c #BDD15A",
"1X c #C0CC59",
"2X c #C1CD5A",
"3X c #C2CD5A",
"4X c #C3CE5A",
"5X c #C3CF5B",
"6X c #C4D05B",
"7X c #C5D15C",
"8X c #C6D25C",
"9X c #C6D35C",
"0X c #C7D35D",
"qX c #C8D45D",
"wX c #EEC341",
"eX c #F6C740",
"rX c #F6CA43",
"tX c #F9CA40",
"yX c #FACA41",
"uX c #FACB41",
"iX c #FBCC41",
"pX c #FCCD43",
"aX c #FCCE43",
"sX c #FDCF43",
"dX c #FFD145",
/* pixels */
"qXqXqXqX4.qXqXqXqXqXqXqXqXqXqXqXqXqX4.qXqXqXqXqXqXqXqXqXqXqXqXqX",
"qX4.qXqX4.qXqX4.qXqXqXqXqXqXqX4.qXqX4.qXqX4.qXqXqXqXqXqXqX4.qXqX",
"qXqX4.qX4.qX4.qXqXqXqXqX4.qXqXqX4.qX4.qX4.qXqXqXqXqX4.qXqX4.qXqX",
"qXqXqXqXqXqXqXqXqXqXqXqXqX4.qXqXqXqXqXqXqXqXqXqXqXqXqX4.qX4.qX9X",
"qXqXqXqXqXqXqXqXqX4.qXqXqXqXqXqXqXqXqXqXqXqXqXqXqXqXqXqXqXqXqXqX",
"qXqXqXqXqXqX4.qXqX4.qXqX4.qXqXqXqXqXqX4.qXqX4.qXqX4.qXqXqXqXqXqX",
"qXqXqXqXqXqXqX4.qX4.qX4.qXqXqXqXqXqXqXqX4.qX4.qX4.qXqXqX4.qXqXqX",
"qXqXqXqXqX4.qXqXqXqXqXqXqX4.qX4.qXqX4.qXqXqXqXqXqXqXqXqXqXqXqXqX",
"qXqX4.qXqX4.qXqX4.qXqXqXqXqXqXqXqXqXqXqXqXqXqX4.qX4XqXqXqXqXqXqX",
"qXqXqX4.qX4.qX4.qXqXqXqXqXqXqXqXqXqXqXqX4.qX0X3.=X/.Y _.;X3.9XqX",
"qXqXqXqXqXqXqXqXqXqXqXqXqXqXqX4.qXqXqXqXqX1.-X-.[ a : 0 K ~.qX<X",
"qXqXqXqXqXqXqXqXqXqXqXqX4.qXqX4.qXqX<.6X%X^.` w $ y r o   E.qXqX",
"qXqXqXqXqX4.qXqXqXqXqXqXqX4.qX4.qX4.|.!.} ^ P l 1 < e ; % 2.qXqX",
"qXqX4.qXqX4.*X5X4.qXqXqXqXqX2X%X#XJ ) > q.v.z.o., A E | `.qXqXqX",
"qXqXqX4.4X,.;.d 8..XqXqXqXqX].' ( L w.M.rXeXc. .X }.XX,X7XqXqXqX",
"qXqXqXqXQ q 8 . 3 F _ W.oX4 / 6 g.m.wXaXtXK.r.f p :XqX4.qXqXqXqX",
"qXqXqXqX@ * i y.=.5 + 9 H ! 0.L.h.U.dXyXD.k.#.- T 1X4.qXqXqXqXqX",
"qXqXqX+XG g $.dXdXdXb.~ u.n.l.Z.S.P.pXK.d.5.n # OX8XqXqXqX4.qXqX",
"qXqX4.qXQ.z C t.J.sXdXdXdXT.N.uXR.R.G.x.+.j R ] %XqXqXqXqXqX9XqX",
"qXqXqX4.OXI S B e.V.H.Y.dXdXiXI.F.C.a.p.v 2 '.3X0XqXqXqXqXqXqXqX",
"qXqXqXqX5X*X).h c X.&.f.A.K.B.j.s.*...Z M U $XqXqXqX4.qXqXqXqXqX",
"qXqXqXqXqXqX>X7.7 O t b O.6.i.%.@.k x {  X=X3X4.qXqX4.qXqX4.qXqX",
"qXqXqXqXqXqX0X7X1X[.W = & u V m N :.(.@X2.qXqXqX4.qX4.qX4.qXqXqX",
"qXqXqXqXqXqX4.qXqX6X:X+X9.s D >.{.qX3XqXqXqXqXqXqXqXqXqXqXqXqXqX",
"qXqXqX4.qXqX4.qXqX4.qXqX1X&X;X>X8XqXqXqXqXqXqX4.qXqXqXqXqXqXqXqX",
"qXqXqXqX4.qX4.qX4.qXqXqXqXqX0XqXqXqXqX4.qXqXqXqXqXqXqXqXqXqX4.qX",
"qXqXqXqXqXqXqXqXqXqXqXqXqX4.qXqX4.qXqX4.qXqX4.qXqXqX4.qXqXqXqX9X",
"qXqXqXqXqXqXqXqXqXqX4.qX4.qXqXqXqX4.qX4.qX4.qXqXqXqXqXqX4.qX4.9X",
"qXqXqX4.qXqXqXqXqXqXqXqXqXqXqXqXqXqXqXqXqXqXqXqXqXqXqXqXqX9XqX9X",
"qXqXqXqXqX4.qXqXqXqXqXqXqXqXqXqXqXqXqXqXqXqXqXqXqXqXqXqXqXqXqXqX",
"qX4.qXqXqXqXqXqX4.qXqXqXqXqXqX4.qXqXqXqXqXqXqX4.qXqXqXqXqXqX4.qX",
"qX4.qX4.qXqX4.qX4.qX4.qXqX4.qX4.qX4.qXqXqX4.qX4.qX4.qXqX4.qX4.qX"
};
