/* XPM */
static char *result[] = {
/* columns rows colors chars-per-pixel */
"32 32 141 2 ",
"   c black",
".  c #010000",
"X  c #010100",
"o  c #020100",
"O  c #020201",
"+  c #0C0704",
"@  c #0B0C05",
"#  c #0E0F07",
"$  c #1A0C03",
"%  c #1B1C0C",
"&  c #320B0B",
"*  c #330C0B",
"=  c #340D0B",
"-  c #3D120C",
";  c #3E130C",
":  c #3C120F",
">  c #3F140E",
",  c #192A11",
"<  c #23200F",
"1  c #2D2F15",
"2  c #382213",
"3  c #45170D",
"4  c #421F08",
"5  c #481910",
"6  c #462008",
"7  c #462108",
"8  c #472108",
"9  c #512609",
"0  c #58240F",
"q  c #58250F",
"w  c #5B2B0A",
"e  c #5E2C0C",
"r  c #562C11",
"t  c #632E0B",
"y  c #68300C",
"u  c #69310C",
"i  c #6A310C",
"p  c #6D340E",
"a  c #6B3211",
"s  c #6D3312",
"d  c #723612",
"f  c #723613",
"g  c #793B12",
"h  c #7A3B13",
"j  c #7B3C12",
"k  c #7C3D12",
"l  c #7C3C13",
"z  c #7C3D13",
"x  c #7E3E13",
"c  c #7F3E13",
"v  c #74361A",
"b  c #2A451C",
"n  c #35441D",
"m  c #40431E",
"M  c #45421C",
"N  c #40441E",
"B  c #42461F",
"V  c #43481F",
"C  c #4A4E22",
"Z  c #803F14",
"A  c #824015",
"S  c #834115",
"D  c #844115",
"F  c #864316",
"G  c #894517",
"H  c #86461C",
"J  c #894518",
"K  c #8C4718",
"L  c #8C491B",
"P  c #8F491C",
"I  c #924C1D",
"U  c #914D1F",
"Y  c #9A501E",
"T  c #89492B",
"R  c #8B4A2A",
"E  c #88492C",
"W  c #89492C",
"Q  c #934E21",
"!  c #9C5023",
"~  c #8D5531",
"^  c #945933",
"/  c #985C34",
"(  c #A35522",
")  c #A05324",
"_  c #A75823",
"`  c #A85824",
"'  c #AB5A25",
"]  c #AD5B25",
"[  c #A55B2C",
"{  c #B25E27",
"}  c #B25F28",
"|  c #B46028",
" . c #B66129",
".. c #B2622D",
"X. c #B8632B",
"o. c #BC672E",
"O. c #BD672F",
"+. c #AE6230",
"@. c #B5693D",
"#. c #C06A32",
"$. c #C26C34",
"%. c #C06D39",
"&. c #C6733C",
"*. c #C7753F",
"=. c #C9733A",
"-. c #CA743B",
";. c #BC6E40",
":. c #BE7342",
">. c #C07442",
",. c #CD7A42",
"<. c #C97A45",
"1. c #CC7B46",
"2. c #D07940",
"3. c #D37E47",
"4. c #D57E44",
"5. c #D67F46",
"6. c #D77F46",
"7. c #6FB94A",
"8. c #71BC4B",
"9. c #9BA448",
"0. c #D88047",
"q. c #D38049",
"w. c #D48049",
"e. c #D58049",
"r. c #D98248",
"t. c #DB8349",
"y. c #D9834A",
"u. c #D9834B",
"i. c #DB844A",
"p. c #DC854B",
"a. c #DD854B",
"s. c #DC854C",
"d. c #DD854C",
"f. c #DD864C",
"g. c #DE864C",
"h. c #DF874D",
"j. c #BBC757",
"k. c #BDD15A",
"l. c #C6D25C",
"z. c #C6D35C",
"x. c #C8D45D",
/* pixels */
"x.x.x.x.8.x.x.x.x.x.x.x.x.x.x.x.x.x.8.x.x.x.x.x.x.x.x.x.x.x.x.x.",
"x.8.x.x.8.x.x.8.x.x.x.x.x.x.x.8.x.x.8.x.x.8.x.x.x.x.x.x.x.8.x.x.",
"x.x.8.x.8.x.8.x.x.x.x.x.8.x.x.x.8.x.8.x.8.x.x.x.x.x.8.x.x.8.x.x.",
"x.x.x.x.x.x.x.x.x.x.x.x.x.8.x.x.x.x.x.x.x.x.x.x.x.x.x.8.x.8.x.z.",
"x.x.x.x.x.x.x.x.x.8.x.x.x.x.x.x.x.x.x.x.x.x.x.x.x.x.x.x.x.x.x.x.",
"x.x.x.x.x.x.8.x.x.8.x.x.8.x.x.x.x.x.x.8.x.x.8.x.x.8.x.x.x.x.x.x.",
"x.x.x.x.x.x.x.8.x.8.x.8.x.x.x.x.x.x.x.x.8.x.8.x.8.x.x.x.8.x.x.x.",
"x.x.x.x.x.8.x.x.x.x.x.                  x.x.x.x.x.x.x.x.x.x.x.x.",
"x.x.8.x.x.8.x.x., % @ :.1.<.>.w.>.<.1.:.@ % 1 8.x.x.x.x.x.x.x.x.",
"x.x.x.8.x.8.x.7.< + X i.g.h.e.h.y.g.g.i.. + < 7.x.x.8.x.x.8.z.x.",
"x.x.x.x.x.x.x.  q.h.h. .O.h.& 0 x  . . . .h.q.  x.8.x.x.x.x.x.k.",
"x.x.x.x.x.C O h.o. . .g.4. .f.+.x h.h.d.& h L h.O C x.x.x.x.x.x.",
"x.x.x.x.9.n 2 0.$.#.) *.&. .@.[ K ;.5.4.; J I 0.$ M 9.8.x.8.x.x.",
"x.x.8.x.  ^ h. .t.u.& x G  .& v  .& !  .x |  . .u 6   x.x.x.x.x.",
"x.x.x.8.  ~ h. . .X.h.h.4. .x Y  .h.#. . .a.r. .u 4   x.x.x.x.x.",
"x.x.x.x.  / h. .=.-.-.E R Y Y ..-.E %.-.-.W T Y u 8   8.x.x.x.x.",
"x.x.x.x.  ~ h. .r.a. .* 3 x  .-.h.& @.h.h.: - x u 4   x.x.x.x.x.",
"x.x.x.x.  ^ h. .> = x x G  .& q x x '  . .Z D  .u 6   x.x.8.x.x.",
"x.x.8.x.  r H  .f s ] *.,.6.a P ` ' 2.4.5 z S  .u 7   x.x.x.z.x.",
"x.x.x.8.O 4 y  .F A  .d.h.h.c Y  . .4.s.& h F  .y 4 O x.x.x.x.x.",
"x.x.x.x.x.N   u {  .h.& ; x  . . .& d x h. .{ u   N 8.x.x.x.x.x.",
"x.x.x.x.x.l.j.o e p i g Q p. . . .l _ { i p e o j.l.8.x.x.8.x.x.",
"x.x.x.x.x.x.x.# 9 w t j U 3.' } ' k ( ' t w 9 # 8.x.8.x.8.x.x.x.",
"x.x.x.x.x.x.8.x.#     u u u u u u u u u     # x.x.x.x.x.x.x.x.x.",
"x.x.x.8.x.x.8.x.x.8.x.O               O x.x.x.8.x.x.x.x.x.x.x.x.",
"x.x.x.x.8.x.8.x.8.x.x.C B V C m C V B b x.x.x.x.x.x.x.x.x.x.8.x.",
"x.x.x.x.x.x.x.x.x.x.x.x.x.8.x.x.8.x.x.8.x.x.8.x.x.x.8.x.x.x.x.z.",
"x.x.x.x.x.x.x.x.x.x.8.x.8.x.x.x.x.8.x.8.x.8.x.x.x.x.x.x.8.x.8.z.",
"x.x.x.8.x.x.x.x.x.x.x.x.x.x.x.x.x.x.x.x.x.x.x.x.x.x.x.x.x.z.x.z.",
"x.x.x.x.x.8.x.x.x.x.x.x.x.x.x.x.x.x.x.x.x.x.x.x.x.x.x.x.x.x.x.x.",
"x.8.x.x.x.x.x.x.8.x.x.x.x.x.x.8.x.x.x.x.x.x.x.8.x.x.x.x.x.x.8.x.",
"x.8.x.8.x.x.8.x.8.x.8.x.x.8.x.8.x.8.x.x.x.8.x.8.x.8.x.x.8.x.8.x."
};
