/* XPM */
static char *result[] = {
/* columns rows colors chars-per-pixel */
"32 32 97 2 ",
"   c #050507",
".  c #070708",
"X  c #09090A",
"o  c #0E120D",
"O  c #11150E",
"+  c #1D1F0F",
"@  c #1A1210",
"#  c #151C11",
"$  c #271915",
"%  c #281A15",
"&  c #3C1F1B",
"*  c #152312",
"=  c #1C2514",
"-  c #1E2915",
";  c #242615",
":  c #2C2617",
">  c #242B16",
",  c #2F2D19",
"<  c #312419",
"1  c #3C231C",
"2  c #322C1A",
"3  c #243219",
"4  c #243A1B",
"5  c #2A3A1C",
"6  c #35381C",
"7  c #333F20",
"8  c #4E2F23",
"9  c #562F24",
"0  c #643D2B",
"q  c #683E2C",
"w  c #2F411F",
"e  c #2F4E1F",
"r  c #334721",
"t  c #3F4220",
"y  c #364C22",
"u  c #3F4E24",
"i  c #365023",
"p  c #3C5325",
"a  c #3D5B27",
"s  c #3F5C28",
"d  c #434423",
"f  c #444923",
"g  c #4B4D26",
"h  c #544128",
"j  c #5D432A",
"k  c #504D29",
"l  c #4E5226",
"z  c #435D29",
"x  c #515628",
"c  c #5E562F",
"v  c #595E2B",
"b  c #69462E",
"n  c #684C2F",
"m  c #71402F",
"M  c #6B4D30",
"N  c #754531",
"B  c #734D32",
"V  c #7C4A34",
"C  c #735535",
"Z  c #795235",
"A  c #44602B",
"S  c #49662E",
"D  c #436F2C",
"F  c #4A692F",
"G  c #5D632D",
"H  c #4D6C30",
"J  c #4A7B31",
"K  c #527333",
"L  c #60662E",
"P  c #626032",
"I  c #666C31",
"U  c #686F32",
"Y  c #6C7333",
"T  c #787F38",
"R  c #824D36",
"E  c #7D853A",
"W  c #65A743",
"Q  c #6BB247",
"!  c #6EB749",
"~  c #6FB94A",
"^  c #71BC4B",
"/  c #828A3D",
"(  c #88903F",
")  c #8B9341",
"_  c #939C45",
"`  c #97A046",
"'  c #9CA649",
"]  c #A2AB4B",
"[  c #A9B34F",
"{  c #ACB650",
"}  c #B0BA52",
"|  c #B9C456",
" . c #BFCA59",
".. c #BDD15A",
"X. c #C3CE5A",
"o. c #C6D35C",
"O. c #C8D45D",
/* pixels */
"O.O.O.O.^ O.O.O.O.O.O.O.O.O.O.O.O.O.^ O.O.O.O.O.O.O.O.O.O.O.O.O.",
"O.^ O.O.^ O.O.^ O.O.O.O.O.O.O.^ O.O.^ O.O.^ O.O.O.O.O.O.O.^ O.O.",
"O.O.^ O.^ O.^ O.O.O.O.O.^ O.O.O.^ O.^ O.^ O.O.O.O.O.^ O.O.^ O.O.",
"O.O.O.O.O.O.O.O.O.O.O.O.O.^ O.O.O.O.O.O.O.O.O.O.O.O.O.^ O.~ O.O.",
"O.O.O.O.O.O.O.O.O.^ O.O.O.O.O.O.O.O.O.O.O.O.O.O.O.O.O.O.O.O.O.O.",
"O.O.O.O.O.O.^ O.O.^ O.O.^ O.O.O.O.O.O.~ O.O.^ O.O.^ O.O.O.O.O.O.",
"O.O.O.O.O.O.O.^ O.~ O.~ T f l l l g x  .^ O.^ O.^ O.O.O.^ O.O.O.",
"O.O.O.O.O.^ O.O.O.O.O.` 2 $ % % % % @ T | O.O.O.O.O.O.O.O.O.O.O.",
"O.O.^ O.O.^ o.X.! O.] . 8 V R R R V q @ L O.X.! O.O.O.O.O.O.O.O.",
"O.O.O.^ O.^ ' * ; ; : 9 N V R V R R V 0 < ; ; # U O.~ O.O.^ O.O.",
"O.O.O.O.O.O.) X - 4 7 c Z R R R R R R R h 4 3 o t ~ O.O.O.O.O...",
"O.O.O.O.o.o.' ; 5 A H F C V B B B B B B P F y = I O.O.O.O.O.O.O.",
"O.O.O.O.O.^ O. .; > a S C n i p p p p p a r X ) ^ O.O.^ O.^ O.O.",
"O.O.^ O.O.^ O.O.* < c F M j i p p y y p 5 > ) o.O.O.O.O.O.O.O.O.",
"O.O.O.^ O.^ O.! ; & b A k k a 3 r z z 5 O > O.O.~ O.O.O.O.O.O.O.",
"O.O.O.O.O.O.O.X.; 1 b u y A A o w K H #   = o.O.^ O.O.^ O.O.O.O.",
"O.O.O.O.O.O.o.X.+ 1 N b f z F A S H S S 3 ; ! O.^ O.^ O.O.O.O.O.",
"O.O.O.O.O.^ O.o.) d 1 m k a H H H S H K 5 ; X.O.O.O.O.O.O.^ O.O.",
"O.O.^ O.O.^ o.O.^ ) , 8 t s H H H H H K 5 ; X.O.O.O.O.O.O.O.X.O.",
"O.O.O.^ O.^ O.^ O.O.[ X 5 A F S S S S H 5 * X.O.O.O.O.O.O.O.O.O.",
"O.O.O.O.O.O.O.O.O.O.{ X 5 z a # O O O p 3 ; o.O.O.O.^ O.O.O.O.O.",
"O.O.O.O.O.O.O.O.{ { J X r y = 4 = X > 3 > v ] ! O.O.^ O.O.^ O.O.",
"O.O.O.O.O.O.o.| ( E U . 5 > ; ( 7 # r @ e ) E [ ^ O.^ O.^ O.O.O.",
"O.O.O.O.O.O.W / / ) Y . X 3 / ) 6 . X U ( / / E ' O.O.O.O.O.O.O.",
"O.O.O.^ O.O.W T E J E L v Y / / Y v G E / / / D _ O.O.O.O.O.O.O.",
"O.O.O.O.^ O.Q ' J / / ( ) ) / / ( ) ( J / / E _ } O.O.O.O.O.^ O.",
"O.O.O.O.O.O.O.O.) E / / / J / / J / / J / / J | O.O.^ O.O.O.O.O.",
"O.O.O.O.O.O.O.O.O.O.^ O.^ O.o.O.O.^ O.^ o.^ O.O.O.O.O.O.^ O.^ O.",
"O.O.O.^ O.O.O.O.O.O.O.O.O.O.O.O.O.O.O.O.O.O.O.O.O.O.O.O.O.o.O.o.",
"O.O.O.O.O.^ O.O.O.O.O.O.O.O.O.O.O.O.O.O.O.O.O.O.O.O.O.O.O.O.O.O.",
"O.^ O.O.O.O.O.O.^ O.O.O.O.O.O.^ O.O.O.O.O.O.O.^ O.O.O.O.O.O.^ O.",
"O.^ O.^ O.O.^ O.^ O.^ O.O.^ O.^ O.^ O.O.O.^ O.^ O.^ O.O.^ O.^ O."
};
