/* XPM */
static char *result[] = {
/* columns rows colors chars-per-pixel */
"32 32 91 1 ",
"  c #202E35",
". c #202F36",
"X c #212F36",
"o c #212F37",
"O c #222F38",
"+ c #213137",
"@ c #233136",
"# c #223137",
"$ c #263336",
"% c #213038",
"& c #213139",
"* c #223138",
"= c #233138",
"- c #223139",
"; c #223238",
": c #233238",
"> c #22313A",
", c #22323A",
"< c #263539",
"1 c #273539",
"2 c #22333C",
"3 c #23333C",
"4 c #23343E",
"5 c #24353F",
"6 c #2D3A3F",
"7 c #243640",
"8 c #243740",
"9 c #243641",
"0 c #243741",
"q c #253842",
"w c #253843",
"e c #9FB751",
"r c #A2B952",
"t c #A5BE53",
"y c #A8BE57",
"u c #A9C254",
"i c #A9C956",
"p c #AFC458",
"a c #A2C959",
"s c #A3CA59",
"d c #A2C95A",
"f c #A4CB5A",
"g c #A5CB5A",
"h c #BCC859",
"j c #BCC85A",
"k c #BDC95A",
"l c #BECA5B",
"z c #BFCA5B",
"x c #ACD55C",
"c c #B3D460",
"v c #B0D760",
"b c #C0CB5A",
"n c #C4CF5B",
"m c #C0CD5C",
"M c #C6D25C",
"N c #C8D45D",
"B c #41799B",
"V c #407A9D",
"C c #427B9D",
"Z c #407A9E",
"A c #427B9E",
"S c #427C9E",
"D c #437C9F",
"F c #437D9F",
"G c #417CA1",
"H c #437DA0",
"J c #447EA2",
"K c #9A2890",
"L c #4981A2",
"P c #4B8DB6",
"I c #4C8FB8",
"U c #4C91BA",
"Y c #4C91BB",
"T c #4D91BB",
"R c #4D92BB",
"E c #4990BC",
"W c #4D92BC",
"Q c #4D94BE",
"! c #4E94BE",
"~ c #4E94BF",
"^ c #5597BE",
"/ c #4E95C0",
"( c #4F96C1",
") c #D3B58F",
"_ c #DCB88E",
"` c #D3B691",
"' c #FED6A7",
"] c #FFD7A8",
"[ c #FFDCAC",
"{ c #FDFCFC",
"} c white",
/* pixels */
"NNNNNNNNNNNNNNNNNNNNNNNNNNNNNNNN",
"NNNNNNNNNNNNNNNNNNNxNNNNNNNNNNNN",
"NNNNNNpNNNNNNiNNNvNNxxNNNNNNNiNN",
"NNxNNNNppNNNNiNNNNvNNxxxNNNNNiNN",
"NNNxxx::%%%%%%%%%%%%%%%,,fxNNiiN",
"NNNNN*ooDDHJJ%%IWWWWWWW((qssNNiN",
"NNNNN*ooDDHJJ%%IWWWWWWW((qksNNiN",
"NNN%%KOOVV}--{{LYYWWWWWWW(wwahNi",
"NNN%%KOOVV}--{{LQQ&&PWW((7,,djNN",
"NNN%%KOOVV}--{{LQQ&&PWW((7,,jjNN",
"NNp%%%ooZZ}--{{LYYWWWWWWW(wwhhNN",
"NNp%%%ooZZ}--{{LYYWWWWWWW(wwheuN",
"NNpNN+KKOOSHHHHFTTWWWWWWW(wwehNN",
"NNpNx+KKOOSHHHHFTTWWWWWWW(wwhhNN",
"NNNpN+KKOOSHHHHFTTWWWWWWW(wwhhNi",
"NNNpN*%%ooSHHHHHDD~~4%%%%%,,jjiN",
"NNNNNNNN==XAAHHTWWWW/88zrNNNNNiN",
"NNNNNNNN==XAAHHTWWWW/88zzNNxNiNN",
"NNNNNNNNiN@ZZ))']]]][66llNxNNNNN",
"NNNNNNcNiN@ZZ))']]]][66llxxNNNNN",
"NNNxNN;;%%.ZZ))']]]][66llxNNNNNN",
"NNxNNN#+UUWGG))']]]][66lfNNiNNNN",
"NNxNNN##UUWGG))']]]][66lfNNiNNNN",
"NNxxNN::ooSHHFFE``__^99zgNiNNxxN",
"NNNxNpNN==XCCRRWWWWW/88ggNiNNxNN",
"NNNxNNpN==XCCRRWWWWW/88zzNiNNxNN",
"NNNxNNpNNN@CC!!2  BB~00rzNiNNxNN",
"NNNNxNpNNN@CC!!2  BB~00zzNNNxNNN",
"NNNxNNpNNN@HH33M$$DD5bbNNNNNxNNN",
"NNNNNNNNNN:--tnN11>>ypNNxxxxxNNN",
"NNNNNNNNNu:--nnN1<>>mNNNNNNNNNNN",
"NNNNNNNNNNNNNNNNNNNNNNNNNNNNNNNN"
};
