/* XPM */
static char *result[] = {
/* columns rows colors chars-per-pixel */
"32 32 100 2 ",
"   c gray15",
".  c gray17",
"X  c #2F2F2F",
"o  c #313131",
"O  c #323232",
"+  c #343434",
"@  c #353535",
"#  c gray22",
"$  c #393939",
"%  c #3C3C3C",
"&  c gray24",
"*  c #3E3E3E",
"=  c #3F3F3F",
"-  c gray25",
";  c #414141",
":  c gray26",
">  c #434343",
",  c #444444",
"<  c gray27",
"1  c #464646",
"2  c gray28",
"3  c #484848",
"4  c #494949",
"5  c gray29",
"6  c #4B4B4B",
"7  c #4C4C4C",
"8  c gray30",
"9  c #4E4E4E",
"0  c gray31",
"q  c #505050",
"w  c #515151",
"e  c gray32",
"r  c #535353",
"t  c gray33",
"y  c #555555",
"u  c #565656",
"i  c gray34",
"p  c #585858",
"a  c gray35",
"s  c #5A5A5A",
"d  c #5B5B5B",
"f  c gray36",
"g  c #5D5D5D",
"h  c gray37",
"j  c #5F5F5F",
"k  c gray38",
"l  c #626262",
"z  c gray39",
"x  c #646464",
"c  c #656565",
"v  c gray40",
"b  c #676767",
"n  c #686868",
"m  c DimGray",
"M  c #6A6A6A",
"N  c gray42",
"B  c #6C6C6C",
"V  c #6D6D6D",
"C  c gray43",
"Z  c #6F6F6F",
"A  c #717171",
"S  c gray45",
"D  c #747474",
"F  c #767676",
"G  c gray47",
"H  c #797979",
"J  c gray48",
"K  c #7B7B7B",
"L  c #7C7C7C",
"P  c gray49",
"I  c gray50",
"U  c #C8D45D",
"Y  c gray52",
"T  c #868686",
"R  c gray53",
"E  c #888888",
"W  c #898989",
"Q  c gray54",
"!  c #8B8B8B",
"~  c gray55",
"^  c #8D8D8D",
"/  c #979797",
"(  c #989898",
")  c gray60",
"_  c #9A9A9A",
"`  c #9B9B9B",
"'  c gray61",
"]  c #9D9D9D",
"[  c gray62",
"{  c #9F9F9F",
"}  c #A0A0A0",
"|  c gray63",
" . c #A2A2A2",
".. c gray64",
"X. c #A4A4A4",
"o. c gray65",
"O. c #A7A7A7",
"+. c #B6B6B6",
"@. c #B7B7B7",
"#. c gray72",
/* pixels */
"U U U U U U U U U U U U U U U U U U U U U U U U U U U U U U U U ",
"U U U U U U U U U U U U U U U U U U U U U U U U U U U U U U U U ",
"U U b ^ ! Q Q Q Q Q Q W W E E E E E E E E E E E E W W Q ~ b U U ",
"U U ^ +.| / ( ( ( ( ( ) ` ' ` ` ` ` ` ` _ _ _ _ _ _ _ ..@.~ U U ",
"U U ! | v 5 9 q 0 0 9 e a g f f f f f d a p p p p i u Z ..Q U U ",
"U U Q / 5   . X o o o + % = = * * * * - 2 4 4 4 4 , $ u _ W U U ",
"U U Q ( 9 . X @ & - = - : > > > > : - 6 z C B B C k , i _ W U U ",
"U U Q ( q X @ % > 2 1 1 < , , , , > ; q A I P P I C 4 p _ E U U ",
"U U Q ( 0 o & > < 1 1 < > : : : : : ; q Z P J J P B 4 p _ E U U ",
"U U Q ( 0 O - 2 1 < , 2 6 8 8 8 8 5 > 0 V L H H L N 4 p _ E U U ",
"U U Q ( 0 o - 1 < , > 6 g c x x c f 3 8 V L H H L N 4 p _ E U U ",
"U U Q ( 9 o = 1 < , : 8 c A Z Z A x 5 7 V L H H L N 4 p _ E U U ",
"U U Q / 8 X * < , > : 8 x Z V V Z z 4 8 V L H H L N 4 p _ E U U ",
"U U W ) y # , 5 5 2 > 7 z C B B C l 4 8 V L H H L N 4 p _ E U U ",
"U U E [ v 8 e u u w 1 7 z C B B C l 4 8 V L H H L N 4 p _ E U U ",
"U U R } C u a d f y 2 6 z C B B C l 4 8 V L H H L N 4 p _ E U U ",
"U U R } V y p s d t 1 6 z C B B C l 4 8 V L H H L N 4 p _ E U U ",
"U U R { B t i a s t 1 6 z C B B C l 4 8 V L H H L N 4 p _ E U U ",
"U U R { B t i a s t 1 6 z C B B C l 4 8 V L H H L N 4 p _ E U U ",
"U U R { B t i a s t 1 6 z C B B C l 4 8 V L H H L N 4 p _ E U U ",
"U U R { B t i a s t 1 6 z C B B C l 4 8 V L H H L N 4 p _ E U U ",
"U U R { B t i a s t 1 6 z C B B C l 4 8 V L H H L N 4 p _ E U U ",
"U U R { B t i a s t 1 6 z C B B C l 4 8 V L H H L N 4 p _ E U U ",
"U U R { B t i a s t 1 6 z C B B C l 4 8 V L H H L N 4 p _ E U U ",
"U U R { B t i a s t 1 6 z C B B C l 4 8 V L H H L N 4 p _ E U U ",
"U U R { M e y p a e , 4 k B N N B k 2 6 N K G G K M 2 u _ W U U ",
"U U R [ n 9 e t y 9 - < h M n n M h > 2 m H F F H n : r ) W U U ",
"U U W O.L n M B V n g k D L K K L S j l L R Y Y R K j B  .Q U U ",
"U U ~ #.O.[ { } } [ ' ] | X.....X.| ' ] ..o.o.o.o...' ..@.~ U U ",
"U U b ~ W R R R R R E E T T T T T T E E T Y Y Y Y T E Q ~ b U U ",
"U U U U U U U U U U U U U U U U U U U U U U U U U U U U U U U U ",
"U U U U U U U U U U U U U U U U U U U U U U U U U U U U U U U U "
};
