/* XPM */
static char *result[] = {
/* columns rows colors chars-per-pixel */
"32 32 35 1 ",
"  c #060608",
". c #3C3C3C",
"X c gray36",
"o c #676767",
"O c #C8D45D",
"+ c gray52",
"@ c #868686",
"# c gray53",
"$ c #888888",
"% c #898989",
"& c gray54",
"* c #8B8B8B",
"= c gray55",
"- c #8D8D8D",
"; c #979797",
": c #989898",
"> c gray60",
", c #9A9A9A",
"< c #9B9B9B",
"1 c gray61",
"2 c #9D9D9D",
"3 c gray62",
"4 c #9F9F9F",
"5 c #A0A0A0",
"6 c gray63",
"7 c #A2A2A2",
"8 c gray64",
"9 c #A4A4A4",
"0 c gray65",
"q c #A7A7A7",
"w c gray68",
"e c #B6B6B6",
"r c #B7B7B7",
"t c gray72",
"y c white",
/* pixels */
"OOOOOOOOOOOOOOOOOOOOOOOOOOOOOOOO",
"OOOOOOOOOOOOOOOOOOOOOOOOOOOOOOOO",
"OOo-*&&&&&&%%$$$$$$$$$$$$%%&=oOO",
"OO-e6;:::::><1<<<<<<,,,,,,,8r=OO",
"OO*6........................8&OO",
"OO&;........................,%OO",
"OO&:........................,%OO",
"OO&:........................,$OO",
"OO&:........................,$OO",
"OO&:........................,$OO",
"OO&:..........     .........,$OO",
"OO&:......... Xwwyy ........,$OO",
"OO&;........ Xw   Xy .......,$OO",
"OO%>........ Xw   Xy .......,$OO",
"OO$3....... Xwwwwwwwy ......,$OO",
"OO#5....... Xwwwwwwwy ......,$OO",
"OO#5....... Xwww  wwy ......,$OO",
"OO#4....... Xwww  www ......,$OO",
"OO#4....... Xwww  www ......,$OO",
"OO#4....... Xwwwwwwww ......,$OO",
"OO#4....... Xwwwwwwww ......,$OO",
"OO#4........         .......,$OO",
"OO#4........................,$OO",
"OO#4........................,$OO",
"OO#4........................,$OO",
"OO#4........................,%OO",
"OO#3........................>%OO",
"OO%q........................7&OO",
"OO=tq34553126988961280000818r=OO",
"OOo=%#####$$@@@@@@$$@++++@$&=oOO",
"OOOOOOOOOOOOOOOOOOOOOOOOOOOOOOOO",
"OOOOOOOOOOOOOOOOOOOOOOOOOOOOOOOO"
};
