/* XPM */
static char *result[] = {
/* columns rows colors chars-per-pixel */
"32 32 8 1 ",
"  c #181425",
". c #404973",
"X c #71BC4B",
"o c #BDD15A",
"O c #C6D35C",
"+ c #C8D45D",
"@ c #686F99",
"# c #A3A7C2",
/* pixels */
"++++X+++++++++++++X+++++++++++++",
"+X++X       +++X++X+       ++X++",
"++X+ @#####@ +++X+X @#####@ +X++",
"+++ @#######@ ++++ @#######@ X+O",
"++ @#########@ ++ @#########@ ++",
"+ @###########@  @###########@ +",
"+ @###########@  @###########@ +",
"+ .@#########@.  .@#########@. +",
"+ ..@#######@..  ..@#######@.. +",
"+ ...@#####@...  ...@#####@... +",
"+ ....@@@@@....  ....@@@@@.... o",
"+ ....@@@@@....  ....@@@@@.... +",
"++ ...@@@@@... X+ ...@@@@@... ++",
"++X ..@@@@@.. ++++ ..@@@@@.. +++",
"+++X .@@@@@. ++++++ .@@@@@. ++++",
"+++++       ++++++++       X++++",
"+++++       X+++X+++       +++++",
"++++ @#####@ ++++++ @#####@ +X++",
"++X @#######@ ++++ @#######@ +O+",
"++ @#########@ X+ @#########@ ++",
"+ @###########@  @###########@ +",
"+ @###########@  @###########@ +",
"+ .@#########@.  .@#########@. +",
"+ ..@#######@..  ..@#######@.. +",
"+ ...@#####@...  ...@#####@... +",
"+ ....@@@@@....  ....@@@@@.... +",
"+ ....@@@@@....  ....@@@@@.... O",
"++ ...@@@@@... ++ ...@@@@@... XO",
"+++ ..@@@@@.. ++++ ..@@@@@.. O+O",
"++++ .@@@@@. ++++++ .@@@@@. ++++",
"+X+++       +++X++++       +++X+",
"+X+X++X+X+X++X+X+X+++X+X+X++X+X+"
};
